<mxfile host="app.diagrams.net" agent="Mozilla/5.0 (Windows NT 10.0; Win64; x64) AppleWebKit/537.36 (KHTML, like Gecko) Chrome/131.0.0.0 Safari/537.36" version="26.0.3">
  <diagram id="R2lEEEUBdFMjLlhIrx00" name="Page-1">
    <mxGraphModel dx="1259" dy="686" grid="1" gridSize="10" guides="1" tooltips="1" connect="1" arrows="1" fold="1" page="1" pageScale="1" pageWidth="850" pageHeight="1100" math="0" shadow="0" extFonts="Permanent Marker^https://fonts.googleapis.com/css?family=Permanent+Marker">
      <root>
        <mxCell id="0" />
        <mxCell id="1" parent="0" />
        <mxCell id="n8HSf5kuPVpnNOSW-F3q-1" value="fact_nsec_deprivation_uk_gam_premises_by_constituency" style="shape=table;startSize=30;container=1;collapsible=1;childLayout=tableLayout;fixedRows=1;rowLines=0;fontStyle=1;align=center;resizeLast=1;" parent="1" vertex="1">
          <mxGeometry x="120" y="95" width="780" height="910" as="geometry" />
        </mxCell>
        <mxCell id="n8HSf5kuPVpnNOSW-F3q-2" value="" style="shape=partialRectangle;collapsible=0;dropTarget=0;pointerEvents=0;fillColor=none;points=[[0,0.5],[1,0.5]];portConstraint=eastwest;top=0;left=0;right=0;bottom=1;" parent="n8HSf5kuPVpnNOSW-F3q-1" vertex="1">
          <mxGeometry y="30" width="780" height="30" as="geometry" />
        </mxCell>
        <mxCell id="n8HSf5kuPVpnNOSW-F3q-3" value="PK" style="shape=partialRectangle;overflow=hidden;connectable=0;fillColor=none;top=0;left=0;bottom=0;right=0;fontStyle=1;" parent="n8HSf5kuPVpnNOSW-F3q-2" vertex="1">
          <mxGeometry width="30" height="30" as="geometry">
            <mxRectangle width="30" height="30" as="alternateBounds" />
          </mxGeometry>
        </mxCell>
        <mxCell id="n8HSf5kuPVpnNOSW-F3q-4" value="constituencyid" style="shape=partialRectangle;overflow=hidden;connectable=0;fillColor=none;top=0;left=0;bottom=0;right=0;align=left;spacingLeft=6;fontStyle=5;" parent="n8HSf5kuPVpnNOSW-F3q-2" vertex="1">
          <mxGeometry x="30" width="750" height="30" as="geometry">
            <mxRectangle width="750" height="30" as="alternateBounds" />
          </mxGeometry>
        </mxCell>
        <mxCell id="n8HSf5kuPVpnNOSW-F3q-5" value="" style="shape=partialRectangle;collapsible=0;dropTarget=0;pointerEvents=0;fillColor=none;points=[[0,0.5],[1,0.5]];portConstraint=eastwest;top=0;left=0;right=0;bottom=0;" parent="n8HSf5kuPVpnNOSW-F3q-1" vertex="1">
          <mxGeometry y="60" width="780" height="30" as="geometry" />
        </mxCell>
        <mxCell id="n8HSf5kuPVpnNOSW-F3q-6" value="" style="shape=partialRectangle;overflow=hidden;connectable=0;fillColor=none;top=0;left=0;bottom=0;right=0;" parent="n8HSf5kuPVpnNOSW-F3q-5" vertex="1">
          <mxGeometry width="30" height="30" as="geometry">
            <mxRectangle width="30" height="30" as="alternateBounds" />
          </mxGeometry>
        </mxCell>
        <mxCell id="n8HSf5kuPVpnNOSW-F3q-7" value="onsconstid" style="shape=partialRectangle;overflow=hidden;connectable=0;fillColor=none;top=0;left=0;bottom=0;right=0;align=left;spacingLeft=6;" parent="n8HSf5kuPVpnNOSW-F3q-5" vertex="1">
          <mxGeometry x="30" width="750" height="30" as="geometry">
            <mxRectangle width="750" height="30" as="alternateBounds" />
          </mxGeometry>
        </mxCell>
        <mxCell id="n8HSf5kuPVpnNOSW-F3q-8" style="shape=partialRectangle;collapsible=0;dropTarget=0;pointerEvents=0;fillColor=none;points=[[0,0.5],[1,0.5]];portConstraint=eastwest;top=0;left=0;right=0;bottom=0;" parent="n8HSf5kuPVpnNOSW-F3q-1" vertex="1">
          <mxGeometry y="90" width="780" height="30" as="geometry" />
        </mxCell>
        <mxCell id="n8HSf5kuPVpnNOSW-F3q-9" style="shape=partialRectangle;overflow=hidden;connectable=0;fillColor=none;top=0;left=0;bottom=0;right=0;" parent="n8HSf5kuPVpnNOSW-F3q-8" vertex="1">
          <mxGeometry width="30" height="30" as="geometry">
            <mxRectangle width="30" height="30" as="alternateBounds" />
          </mxGeometry>
        </mxCell>
        <mxCell id="n8HSf5kuPVpnNOSW-F3q-10" value="constituencyname" style="shape=partialRectangle;overflow=hidden;connectable=0;fillColor=none;top=0;left=0;bottom=0;right=0;align=left;spacingLeft=6;" parent="n8HSf5kuPVpnNOSW-F3q-8" vertex="1">
          <mxGeometry x="30" width="750" height="30" as="geometry">
            <mxRectangle width="750" height="30" as="alternateBounds" />
          </mxGeometry>
        </mxCell>
        <mxCell id="n8HSf5kuPVpnNOSW-F3q-11" style="shape=partialRectangle;collapsible=0;dropTarget=0;pointerEvents=0;fillColor=none;points=[[0,0.5],[1,0.5]];portConstraint=eastwest;top=0;left=0;right=0;bottom=0;" parent="n8HSf5kuPVpnNOSW-F3q-1" vertex="1">
          <mxGeometry y="120" width="780" height="30" as="geometry" />
        </mxCell>
        <mxCell id="n8HSf5kuPVpnNOSW-F3q-12" style="shape=partialRectangle;overflow=hidden;connectable=0;fillColor=none;top=0;left=0;bottom=0;right=0;" parent="n8HSf5kuPVpnNOSW-F3q-11" vertex="1">
          <mxGeometry width="30" height="30" as="geometry">
            <mxRectangle width="30" height="30" as="alternateBounds" />
          </mxGeometry>
        </mxCell>
        <mxCell id="n8HSf5kuPVpnNOSW-F3q-13" value="variables" style="shape=partialRectangle;overflow=hidden;connectable=0;fillColor=none;top=0;left=0;bottom=0;right=0;align=left;spacingLeft=6;" parent="n8HSf5kuPVpnNOSW-F3q-11" vertex="1">
          <mxGeometry x="30" width="750" height="30" as="geometry">
            <mxRectangle width="750" height="30" as="alternateBounds" />
          </mxGeometry>
        </mxCell>
        <mxCell id="CRm_1fGnL9gnfe-iebsa-16" style="shape=partialRectangle;collapsible=0;dropTarget=0;pointerEvents=0;fillColor=none;points=[[0,0.5],[1,0.5]];portConstraint=eastwest;top=0;left=0;right=0;bottom=0;" vertex="1" parent="n8HSf5kuPVpnNOSW-F3q-1">
          <mxGeometry y="150" width="780" height="30" as="geometry" />
        </mxCell>
        <mxCell id="CRm_1fGnL9gnfe-iebsa-17" style="shape=partialRectangle;overflow=hidden;connectable=0;fillColor=none;top=0;left=0;bottom=0;right=0;" vertex="1" parent="CRm_1fGnL9gnfe-iebsa-16">
          <mxGeometry width="30" height="30" as="geometry">
            <mxRectangle width="30" height="30" as="alternateBounds" />
          </mxGeometry>
        </mxCell>
        <mxCell id="CRm_1fGnL9gnfe-iebsa-18" value="imd_rank_2019" style="shape=partialRectangle;overflow=hidden;connectable=0;fillColor=none;top=0;left=0;bottom=0;right=0;align=left;spacingLeft=6;" vertex="1" parent="CRm_1fGnL9gnfe-iebsa-16">
          <mxGeometry x="30" width="750" height="30" as="geometry">
            <mxRectangle width="750" height="30" as="alternateBounds" />
          </mxGeometry>
        </mxCell>
        <mxCell id="CRm_1fGnL9gnfe-iebsa-25" style="shape=partialRectangle;collapsible=0;dropTarget=0;pointerEvents=0;fillColor=none;points=[[0,0.5],[1,0.5]];portConstraint=eastwest;top=0;left=0;right=0;bottom=0;" vertex="1" parent="n8HSf5kuPVpnNOSW-F3q-1">
          <mxGeometry y="180" width="780" height="30" as="geometry" />
        </mxCell>
        <mxCell id="CRm_1fGnL9gnfe-iebsa-26" style="shape=partialRectangle;overflow=hidden;connectable=0;fillColor=none;top=0;left=0;bottom=0;right=0;" vertex="1" parent="CRm_1fGnL9gnfe-iebsa-25">
          <mxGeometry width="30" height="30" as="geometry">
            <mxRectangle width="30" height="30" as="alternateBounds" />
          </mxGeometry>
        </mxCell>
        <mxCell id="CRm_1fGnL9gnfe-iebsa-27" value="income" style="shape=partialRectangle;overflow=hidden;connectable=0;fillColor=none;top=0;left=0;bottom=0;right=0;align=left;spacingLeft=6;" vertex="1" parent="CRm_1fGnL9gnfe-iebsa-25">
          <mxGeometry x="30" width="750" height="30" as="geometry">
            <mxRectangle width="750" height="30" as="alternateBounds" />
          </mxGeometry>
        </mxCell>
        <mxCell id="CRm_1fGnL9gnfe-iebsa-22" style="shape=partialRectangle;collapsible=0;dropTarget=0;pointerEvents=0;fillColor=none;points=[[0,0.5],[1,0.5]];portConstraint=eastwest;top=0;left=0;right=0;bottom=0;" vertex="1" parent="n8HSf5kuPVpnNOSW-F3q-1">
          <mxGeometry y="210" width="780" height="30" as="geometry" />
        </mxCell>
        <mxCell id="CRm_1fGnL9gnfe-iebsa-23" style="shape=partialRectangle;overflow=hidden;connectable=0;fillColor=none;top=0;left=0;bottom=0;right=0;" vertex="1" parent="CRm_1fGnL9gnfe-iebsa-22">
          <mxGeometry width="30" height="30" as="geometry">
            <mxRectangle width="30" height="30" as="alternateBounds" />
          </mxGeometry>
        </mxCell>
        <mxCell id="CRm_1fGnL9gnfe-iebsa-24" value="employment" style="shape=partialRectangle;overflow=hidden;connectable=0;fillColor=none;top=0;left=0;bottom=0;right=0;align=left;spacingLeft=6;" vertex="1" parent="CRm_1fGnL9gnfe-iebsa-22">
          <mxGeometry x="30" width="750" height="30" as="geometry">
            <mxRectangle width="750" height="30" as="alternateBounds" />
          </mxGeometry>
        </mxCell>
        <mxCell id="CRm_1fGnL9gnfe-iebsa-19" style="shape=partialRectangle;collapsible=0;dropTarget=0;pointerEvents=0;fillColor=none;points=[[0,0.5],[1,0.5]];portConstraint=eastwest;top=0;left=0;right=0;bottom=0;" vertex="1" parent="n8HSf5kuPVpnNOSW-F3q-1">
          <mxGeometry y="240" width="780" height="30" as="geometry" />
        </mxCell>
        <mxCell id="CRm_1fGnL9gnfe-iebsa-20" style="shape=partialRectangle;overflow=hidden;connectable=0;fillColor=none;top=0;left=0;bottom=0;right=0;" vertex="1" parent="CRm_1fGnL9gnfe-iebsa-19">
          <mxGeometry width="30" height="30" as="geometry">
            <mxRectangle width="30" height="30" as="alternateBounds" />
          </mxGeometry>
        </mxCell>
        <mxCell id="CRm_1fGnL9gnfe-iebsa-21" value="education_skills_and_training" style="shape=partialRectangle;overflow=hidden;connectable=0;fillColor=none;top=0;left=0;bottom=0;right=0;align=left;spacingLeft=6;" vertex="1" parent="CRm_1fGnL9gnfe-iebsa-19">
          <mxGeometry x="30" width="750" height="30" as="geometry">
            <mxRectangle width="750" height="30" as="alternateBounds" />
          </mxGeometry>
        </mxCell>
        <mxCell id="CRm_1fGnL9gnfe-iebsa-40" style="shape=partialRectangle;collapsible=0;dropTarget=0;pointerEvents=0;fillColor=none;points=[[0,0.5],[1,0.5]];portConstraint=eastwest;top=0;left=0;right=0;bottom=0;" vertex="1" parent="n8HSf5kuPVpnNOSW-F3q-1">
          <mxGeometry y="270" width="780" height="30" as="geometry" />
        </mxCell>
        <mxCell id="CRm_1fGnL9gnfe-iebsa-41" style="shape=partialRectangle;overflow=hidden;connectable=0;fillColor=none;top=0;left=0;bottom=0;right=0;" vertex="1" parent="CRm_1fGnL9gnfe-iebsa-40">
          <mxGeometry width="30" height="30" as="geometry">
            <mxRectangle width="30" height="30" as="alternateBounds" />
          </mxGeometry>
        </mxCell>
        <mxCell id="CRm_1fGnL9gnfe-iebsa-42" value="health_deprivation_and_disability" style="shape=partialRectangle;overflow=hidden;connectable=0;fillColor=none;top=0;left=0;bottom=0;right=0;align=left;spacingLeft=6;" vertex="1" parent="CRm_1fGnL9gnfe-iebsa-40">
          <mxGeometry x="30" width="750" height="30" as="geometry">
            <mxRectangle width="750" height="30" as="alternateBounds" />
          </mxGeometry>
        </mxCell>
        <mxCell id="CRm_1fGnL9gnfe-iebsa-37" style="shape=partialRectangle;collapsible=0;dropTarget=0;pointerEvents=0;fillColor=none;points=[[0,0.5],[1,0.5]];portConstraint=eastwest;top=0;left=0;right=0;bottom=0;" vertex="1" parent="n8HSf5kuPVpnNOSW-F3q-1">
          <mxGeometry y="300" width="780" height="30" as="geometry" />
        </mxCell>
        <mxCell id="CRm_1fGnL9gnfe-iebsa-38" style="shape=partialRectangle;overflow=hidden;connectable=0;fillColor=none;top=0;left=0;bottom=0;right=0;" vertex="1" parent="CRm_1fGnL9gnfe-iebsa-37">
          <mxGeometry width="30" height="30" as="geometry">
            <mxRectangle width="30" height="30" as="alternateBounds" />
          </mxGeometry>
        </mxCell>
        <mxCell id="CRm_1fGnL9gnfe-iebsa-39" value="crime" style="shape=partialRectangle;overflow=hidden;connectable=0;fillColor=none;top=0;left=0;bottom=0;right=0;align=left;spacingLeft=6;" vertex="1" parent="CRm_1fGnL9gnfe-iebsa-37">
          <mxGeometry x="30" width="750" height="30" as="geometry">
            <mxRectangle width="750" height="30" as="alternateBounds" />
          </mxGeometry>
        </mxCell>
        <mxCell id="CRm_1fGnL9gnfe-iebsa-34" style="shape=partialRectangle;collapsible=0;dropTarget=0;pointerEvents=0;fillColor=none;points=[[0,0.5],[1,0.5]];portConstraint=eastwest;top=0;left=0;right=0;bottom=0;" vertex="1" parent="n8HSf5kuPVpnNOSW-F3q-1">
          <mxGeometry y="330" width="780" height="30" as="geometry" />
        </mxCell>
        <mxCell id="CRm_1fGnL9gnfe-iebsa-35" style="shape=partialRectangle;overflow=hidden;connectable=0;fillColor=none;top=0;left=0;bottom=0;right=0;" vertex="1" parent="CRm_1fGnL9gnfe-iebsa-34">
          <mxGeometry width="30" height="30" as="geometry">
            <mxRectangle width="30" height="30" as="alternateBounds" />
          </mxGeometry>
        </mxCell>
        <mxCell id="CRm_1fGnL9gnfe-iebsa-36" value="barriers_to_housing_and_services" style="shape=partialRectangle;overflow=hidden;connectable=0;fillColor=none;top=0;left=0;bottom=0;right=0;align=left;spacingLeft=6;" vertex="1" parent="CRm_1fGnL9gnfe-iebsa-34">
          <mxGeometry x="30" width="750" height="30" as="geometry">
            <mxRectangle width="750" height="30" as="alternateBounds" />
          </mxGeometry>
        </mxCell>
        <mxCell id="CRm_1fGnL9gnfe-iebsa-31" style="shape=partialRectangle;collapsible=0;dropTarget=0;pointerEvents=0;fillColor=none;points=[[0,0.5],[1,0.5]];portConstraint=eastwest;top=0;left=0;right=0;bottom=0;" vertex="1" parent="n8HSf5kuPVpnNOSW-F3q-1">
          <mxGeometry y="360" width="780" height="30" as="geometry" />
        </mxCell>
        <mxCell id="CRm_1fGnL9gnfe-iebsa-32" style="shape=partialRectangle;overflow=hidden;connectable=0;fillColor=none;top=0;left=0;bottom=0;right=0;" vertex="1" parent="CRm_1fGnL9gnfe-iebsa-31">
          <mxGeometry width="30" height="30" as="geometry">
            <mxRectangle width="30" height="30" as="alternateBounds" />
          </mxGeometry>
        </mxCell>
        <mxCell id="CRm_1fGnL9gnfe-iebsa-33" value="living_environment" style="shape=partialRectangle;overflow=hidden;connectable=0;fillColor=none;top=0;left=0;bottom=0;right=0;align=left;spacingLeft=6;" vertex="1" parent="CRm_1fGnL9gnfe-iebsa-31">
          <mxGeometry x="30" width="750" height="30" as="geometry">
            <mxRectangle width="750" height="30" as="alternateBounds" />
          </mxGeometry>
        </mxCell>
        <mxCell id="CRm_1fGnL9gnfe-iebsa-131" style="shape=partialRectangle;collapsible=0;dropTarget=0;pointerEvents=0;fillColor=none;points=[[0,0.5],[1,0.5]];portConstraint=eastwest;top=0;left=0;right=0;bottom=0;" vertex="1" parent="n8HSf5kuPVpnNOSW-F3q-1">
          <mxGeometry y="390" width="780" height="30" as="geometry" />
        </mxCell>
        <mxCell id="CRm_1fGnL9gnfe-iebsa-132" style="shape=partialRectangle;overflow=hidden;connectable=0;fillColor=none;top=0;left=0;bottom=0;right=0;" vertex="1" parent="CRm_1fGnL9gnfe-iebsa-131">
          <mxGeometry width="30" height="30" as="geometry">
            <mxRectangle width="30" height="30" as="alternateBounds" />
          </mxGeometry>
        </mxCell>
        <mxCell id="CRm_1fGnL9gnfe-iebsa-133" value="fulltime_students" style="shape=partialRectangle;overflow=hidden;connectable=0;fillColor=none;top=0;left=0;bottom=0;right=0;align=left;spacingLeft=6;" vertex="1" parent="CRm_1fGnL9gnfe-iebsa-131">
          <mxGeometry x="30" width="750" height="30" as="geometry">
            <mxRectangle width="750" height="30" as="alternateBounds" />
          </mxGeometry>
        </mxCell>
        <mxCell id="CRm_1fGnL9gnfe-iebsa-143" style="shape=partialRectangle;collapsible=0;dropTarget=0;pointerEvents=0;fillColor=none;points=[[0,0.5],[1,0.5]];portConstraint=eastwest;top=0;left=0;right=0;bottom=0;" vertex="1" parent="n8HSf5kuPVpnNOSW-F3q-1">
          <mxGeometry y="420" width="780" height="30" as="geometry" />
        </mxCell>
        <mxCell id="CRm_1fGnL9gnfe-iebsa-144" style="shape=partialRectangle;overflow=hidden;connectable=0;fillColor=none;top=0;left=0;bottom=0;right=0;" vertex="1" parent="CRm_1fGnL9gnfe-iebsa-143">
          <mxGeometry width="30" height="30" as="geometry">
            <mxRectangle width="30" height="30" as="alternateBounds" />
          </mxGeometry>
        </mxCell>
        <mxCell id="CRm_1fGnL9gnfe-iebsa-145" value="intermediate_occupations" style="shape=partialRectangle;overflow=hidden;connectable=0;fillColor=none;top=0;left=0;bottom=0;right=0;align=left;spacingLeft=6;" vertex="1" parent="CRm_1fGnL9gnfe-iebsa-143">
          <mxGeometry x="30" width="750" height="30" as="geometry">
            <mxRectangle width="750" height="30" as="alternateBounds" />
          </mxGeometry>
        </mxCell>
        <mxCell id="CRm_1fGnL9gnfe-iebsa-140" style="shape=partialRectangle;collapsible=0;dropTarget=0;pointerEvents=0;fillColor=none;points=[[0,0.5],[1,0.5]];portConstraint=eastwest;top=0;left=0;right=0;bottom=0;" vertex="1" parent="n8HSf5kuPVpnNOSW-F3q-1">
          <mxGeometry y="450" width="780" height="30" as="geometry" />
        </mxCell>
        <mxCell id="CRm_1fGnL9gnfe-iebsa-141" style="shape=partialRectangle;overflow=hidden;connectable=0;fillColor=none;top=0;left=0;bottom=0;right=0;" vertex="1" parent="CRm_1fGnL9gnfe-iebsa-140">
          <mxGeometry width="30" height="30" as="geometry">
            <mxRectangle width="30" height="30" as="alternateBounds" />
          </mxGeometry>
        </mxCell>
        <mxCell id="CRm_1fGnL9gnfe-iebsa-142" value="intermediate_occupations_small_employers_and_own_account_workers" style="shape=partialRectangle;overflow=hidden;connectable=0;fillColor=none;top=0;left=0;bottom=0;right=0;align=left;spacingLeft=6;" vertex="1" parent="CRm_1fGnL9gnfe-iebsa-140">
          <mxGeometry x="30" width="750" height="30" as="geometry">
            <mxRectangle width="750" height="30" as="alternateBounds" />
          </mxGeometry>
        </mxCell>
        <mxCell id="CRm_1fGnL9gnfe-iebsa-134" style="shape=partialRectangle;collapsible=0;dropTarget=0;pointerEvents=0;fillColor=none;points=[[0,0.5],[1,0.5]];portConstraint=eastwest;top=0;left=0;right=0;bottom=0;" vertex="1" parent="n8HSf5kuPVpnNOSW-F3q-1">
          <mxGeometry y="480" width="780" height="30" as="geometry" />
        </mxCell>
        <mxCell id="CRm_1fGnL9gnfe-iebsa-135" style="shape=partialRectangle;overflow=hidden;connectable=0;fillColor=none;top=0;left=0;bottom=0;right=0;" vertex="1" parent="CRm_1fGnL9gnfe-iebsa-134">
          <mxGeometry width="30" height="30" as="geometry">
            <mxRectangle width="30" height="30" as="alternateBounds" />
          </mxGeometry>
        </mxCell>
        <mxCell id="CRm_1fGnL9gnfe-iebsa-136" value="managerial_administrative_and_professional_occupations_higher_managerial_administrative_and_professional_occupations" style="shape=partialRectangle;overflow=hidden;connectable=0;fillColor=none;top=0;left=0;bottom=0;right=0;align=left;spacingLeft=6;" vertex="1" parent="CRm_1fGnL9gnfe-iebsa-134">
          <mxGeometry x="30" width="750" height="30" as="geometry">
            <mxRectangle width="750" height="30" as="alternateBounds" />
          </mxGeometry>
        </mxCell>
        <mxCell id="CRm_1fGnL9gnfe-iebsa-152" style="shape=partialRectangle;collapsible=0;dropTarget=0;pointerEvents=0;fillColor=none;points=[[0,0.5],[1,0.5]];portConstraint=eastwest;top=0;left=0;right=0;bottom=0;" vertex="1" parent="n8HSf5kuPVpnNOSW-F3q-1">
          <mxGeometry y="510" width="780" height="30" as="geometry" />
        </mxCell>
        <mxCell id="CRm_1fGnL9gnfe-iebsa-153" style="shape=partialRectangle;overflow=hidden;connectable=0;fillColor=none;top=0;left=0;bottom=0;right=0;" vertex="1" parent="CRm_1fGnL9gnfe-iebsa-152">
          <mxGeometry width="30" height="30" as="geometry">
            <mxRectangle width="30" height="30" as="alternateBounds" />
          </mxGeometry>
        </mxCell>
        <mxCell id="CRm_1fGnL9gnfe-iebsa-154" value="managerial_administrative_and_professional_occupations_lower_managerial_administrative_and_professional_occupations" style="shape=partialRectangle;overflow=hidden;connectable=0;fillColor=none;top=0;left=0;bottom=0;right=0;align=left;spacingLeft=6;" vertex="1" parent="CRm_1fGnL9gnfe-iebsa-152">
          <mxGeometry x="30" width="750" height="30" as="geometry">
            <mxRectangle width="750" height="30" as="alternateBounds" />
          </mxGeometry>
        </mxCell>
        <mxCell id="CRm_1fGnL9gnfe-iebsa-149" style="shape=partialRectangle;collapsible=0;dropTarget=0;pointerEvents=0;fillColor=none;points=[[0,0.5],[1,0.5]];portConstraint=eastwest;top=0;left=0;right=0;bottom=0;" vertex="1" parent="n8HSf5kuPVpnNOSW-F3q-1">
          <mxGeometry y="540" width="780" height="30" as="geometry" />
        </mxCell>
        <mxCell id="CRm_1fGnL9gnfe-iebsa-150" style="shape=partialRectangle;overflow=hidden;connectable=0;fillColor=none;top=0;left=0;bottom=0;right=0;" vertex="1" parent="CRm_1fGnL9gnfe-iebsa-149">
          <mxGeometry width="30" height="30" as="geometry">
            <mxRectangle width="30" height="30" as="alternateBounds" />
          </mxGeometry>
        </mxCell>
        <mxCell id="CRm_1fGnL9gnfe-iebsa-151" value="never_worked_longterm_unemployed" style="shape=partialRectangle;overflow=hidden;connectable=0;fillColor=none;top=0;left=0;bottom=0;right=0;align=left;spacingLeft=6;" vertex="1" parent="CRm_1fGnL9gnfe-iebsa-149">
          <mxGeometry x="30" width="750" height="30" as="geometry">
            <mxRectangle width="750" height="30" as="alternateBounds" />
          </mxGeometry>
        </mxCell>
        <mxCell id="CRm_1fGnL9gnfe-iebsa-146" style="shape=partialRectangle;collapsible=0;dropTarget=0;pointerEvents=0;fillColor=none;points=[[0,0.5],[1,0.5]];portConstraint=eastwest;top=0;left=0;right=0;bottom=0;" vertex="1" parent="n8HSf5kuPVpnNOSW-F3q-1">
          <mxGeometry y="570" width="780" height="30" as="geometry" />
        </mxCell>
        <mxCell id="CRm_1fGnL9gnfe-iebsa-147" style="shape=partialRectangle;overflow=hidden;connectable=0;fillColor=none;top=0;left=0;bottom=0;right=0;" vertex="1" parent="CRm_1fGnL9gnfe-iebsa-146">
          <mxGeometry width="30" height="30" as="geometry">
            <mxRectangle width="30" height="30" as="alternateBounds" />
          </mxGeometry>
        </mxCell>
        <mxCell id="CRm_1fGnL9gnfe-iebsa-148" value="routine_and_manual_occupations_lower_supervisory_and_technical_occupations" style="shape=partialRectangle;overflow=hidden;connectable=0;fillColor=none;top=0;left=0;bottom=0;right=0;align=left;spacingLeft=6;" vertex="1" parent="CRm_1fGnL9gnfe-iebsa-146">
          <mxGeometry x="30" width="750" height="30" as="geometry">
            <mxRectangle width="750" height="30" as="alternateBounds" />
          </mxGeometry>
        </mxCell>
        <mxCell id="CRm_1fGnL9gnfe-iebsa-155" style="shape=partialRectangle;collapsible=0;dropTarget=0;pointerEvents=0;fillColor=none;points=[[0,0.5],[1,0.5]];portConstraint=eastwest;top=0;left=0;right=0;bottom=0;" vertex="1" parent="n8HSf5kuPVpnNOSW-F3q-1">
          <mxGeometry y="600" width="780" height="30" as="geometry" />
        </mxCell>
        <mxCell id="CRm_1fGnL9gnfe-iebsa-156" style="shape=partialRectangle;overflow=hidden;connectable=0;fillColor=none;top=0;left=0;bottom=0;right=0;" vertex="1" parent="CRm_1fGnL9gnfe-iebsa-155">
          <mxGeometry width="30" height="30" as="geometry">
            <mxRectangle width="30" height="30" as="alternateBounds" />
          </mxGeometry>
        </mxCell>
        <mxCell id="CRm_1fGnL9gnfe-iebsa-157" value="routine_and_manual_occupations_routine_occupations" style="shape=partialRectangle;overflow=hidden;connectable=0;fillColor=none;top=0;left=0;bottom=0;right=0;align=left;spacingLeft=6;" vertex="1" parent="CRm_1fGnL9gnfe-iebsa-155">
          <mxGeometry x="30" width="750" height="30" as="geometry">
            <mxRectangle width="750" height="30" as="alternateBounds" />
          </mxGeometry>
        </mxCell>
        <mxCell id="CRm_1fGnL9gnfe-iebsa-158" style="shape=partialRectangle;collapsible=0;dropTarget=0;pointerEvents=0;fillColor=none;points=[[0,0.5],[1,0.5]];portConstraint=eastwest;top=0;left=0;right=0;bottom=0;" vertex="1" parent="n8HSf5kuPVpnNOSW-F3q-1">
          <mxGeometry y="630" width="780" height="30" as="geometry" />
        </mxCell>
        <mxCell id="CRm_1fGnL9gnfe-iebsa-159" style="shape=partialRectangle;overflow=hidden;connectable=0;fillColor=none;top=0;left=0;bottom=0;right=0;" vertex="1" parent="CRm_1fGnL9gnfe-iebsa-158">
          <mxGeometry width="30" height="30" as="geometry">
            <mxRectangle width="30" height="30" as="alternateBounds" />
          </mxGeometry>
        </mxCell>
        <mxCell id="CRm_1fGnL9gnfe-iebsa-160" value="routine_and_manual_occupations_semiroutine_occupations" style="shape=partialRectangle;overflow=hidden;connectable=0;fillColor=none;top=0;left=0;bottom=0;right=0;align=left;spacingLeft=6;" vertex="1" parent="CRm_1fGnL9gnfe-iebsa-158">
          <mxGeometry x="30" width="750" height="30" as="geometry">
            <mxRectangle width="750" height="30" as="alternateBounds" />
          </mxGeometry>
        </mxCell>
        <mxCell id="CRm_1fGnL9gnfe-iebsa-123" style="shape=partialRectangle;collapsible=0;dropTarget=0;pointerEvents=0;fillColor=none;points=[[0,0.5],[1,0.5]];portConstraint=eastwest;top=0;left=0;right=0;bottom=0;" vertex="1" parent="n8HSf5kuPVpnNOSW-F3q-1">
          <mxGeometry y="660" width="780" height="30" as="geometry" />
        </mxCell>
        <mxCell id="CRm_1fGnL9gnfe-iebsa-124" style="shape=partialRectangle;overflow=hidden;connectable=0;fillColor=none;top=0;left=0;bottom=0;right=0;" vertex="1" parent="CRm_1fGnL9gnfe-iebsa-123">
          <mxGeometry width="30" height="30" as="geometry">
            <mxRectangle width="30" height="30" as="alternateBounds" />
          </mxGeometry>
        </mxCell>
        <mxCell id="CRm_1fGnL9gnfe-iebsa-125" value="total_closed_gambling_premises" style="shape=partialRectangle;overflow=hidden;connectable=0;fillColor=none;top=0;left=0;bottom=0;right=0;align=left;spacingLeft=6;" vertex="1" parent="CRm_1fGnL9gnfe-iebsa-123">
          <mxGeometry x="30" width="750" height="30" as="geometry">
            <mxRectangle width="750" height="30" as="alternateBounds" />
          </mxGeometry>
        </mxCell>
        <mxCell id="CRm_1fGnL9gnfe-iebsa-126" style="shape=partialRectangle;collapsible=0;dropTarget=0;pointerEvents=0;fillColor=none;points=[[0,0.5],[1,0.5]];portConstraint=eastwest;top=0;left=0;right=0;bottom=0;" vertex="1" parent="n8HSf5kuPVpnNOSW-F3q-1">
          <mxGeometry y="690" width="780" height="30" as="geometry" />
        </mxCell>
        <mxCell id="CRm_1fGnL9gnfe-iebsa-127" style="shape=partialRectangle;overflow=hidden;connectable=0;fillColor=none;top=0;left=0;bottom=0;right=0;" vertex="1" parent="CRm_1fGnL9gnfe-iebsa-126">
          <mxGeometry width="30" height="30" as="geometry">
            <mxRectangle width="30" height="30" as="alternateBounds" />
          </mxGeometry>
        </mxCell>
        <mxCell id="CRm_1fGnL9gnfe-iebsa-128" value="total_open_gambling_premises" style="shape=partialRectangle;overflow=hidden;connectable=0;fillColor=none;top=0;left=0;bottom=0;right=0;align=left;spacingLeft=6;" vertex="1" parent="CRm_1fGnL9gnfe-iebsa-126">
          <mxGeometry x="30" width="750" height="30" as="geometry">
            <mxRectangle width="750" height="30" as="alternateBounds" />
          </mxGeometry>
        </mxCell>
        <mxCell id="CRm_1fGnL9gnfe-iebsa-105" style="shape=partialRectangle;collapsible=0;dropTarget=0;pointerEvents=0;fillColor=none;points=[[0,0.5],[1,0.5]];portConstraint=eastwest;top=0;left=0;right=0;bottom=0;" vertex="1" parent="n8HSf5kuPVpnNOSW-F3q-1">
          <mxGeometry y="720" width="780" height="30" as="geometry" />
        </mxCell>
        <mxCell id="CRm_1fGnL9gnfe-iebsa-106" style="shape=partialRectangle;overflow=hidden;connectable=0;fillColor=none;top=0;left=0;bottom=0;right=0;" vertex="1" parent="CRm_1fGnL9gnfe-iebsa-105">
          <mxGeometry width="30" height="30" as="geometry">
            <mxRectangle width="30" height="30" as="alternateBounds" />
          </mxGeometry>
        </mxCell>
        <mxCell id="CRm_1fGnL9gnfe-iebsa-107" value="betting shop licences" style="shape=partialRectangle;overflow=hidden;connectable=0;fillColor=none;top=0;left=0;bottom=0;right=0;align=left;spacingLeft=6;" vertex="1" parent="CRm_1fGnL9gnfe-iebsa-105">
          <mxGeometry x="30" width="750" height="30" as="geometry">
            <mxRectangle width="750" height="30" as="alternateBounds" />
          </mxGeometry>
        </mxCell>
        <mxCell id="CRm_1fGnL9gnfe-iebsa-114" style="shape=partialRectangle;collapsible=0;dropTarget=0;pointerEvents=0;fillColor=none;points=[[0,0.5],[1,0.5]];portConstraint=eastwest;top=0;left=0;right=0;bottom=0;" vertex="1" parent="n8HSf5kuPVpnNOSW-F3q-1">
          <mxGeometry y="750" width="780" height="30" as="geometry" />
        </mxCell>
        <mxCell id="CRm_1fGnL9gnfe-iebsa-115" style="shape=partialRectangle;overflow=hidden;connectable=0;fillColor=none;top=0;left=0;bottom=0;right=0;" vertex="1" parent="CRm_1fGnL9gnfe-iebsa-114">
          <mxGeometry width="30" height="30" as="geometry">
            <mxRectangle width="30" height="30" as="alternateBounds" />
          </mxGeometry>
        </mxCell>
        <mxCell id="CRm_1fGnL9gnfe-iebsa-116" value="adult gaming centre licences" style="shape=partialRectangle;overflow=hidden;connectable=0;fillColor=none;top=0;left=0;bottom=0;right=0;align=left;spacingLeft=6;" vertex="1" parent="CRm_1fGnL9gnfe-iebsa-114">
          <mxGeometry x="30" width="750" height="30" as="geometry">
            <mxRectangle width="750" height="30" as="alternateBounds" />
          </mxGeometry>
        </mxCell>
        <mxCell id="CRm_1fGnL9gnfe-iebsa-111" style="shape=partialRectangle;collapsible=0;dropTarget=0;pointerEvents=0;fillColor=none;points=[[0,0.5],[1,0.5]];portConstraint=eastwest;top=0;left=0;right=0;bottom=0;" vertex="1" parent="n8HSf5kuPVpnNOSW-F3q-1">
          <mxGeometry y="780" width="780" height="30" as="geometry" />
        </mxCell>
        <mxCell id="CRm_1fGnL9gnfe-iebsa-112" style="shape=partialRectangle;overflow=hidden;connectable=0;fillColor=none;top=0;left=0;bottom=0;right=0;" vertex="1" parent="CRm_1fGnL9gnfe-iebsa-111">
          <mxGeometry width="30" height="30" as="geometry">
            <mxRectangle width="30" height="30" as="alternateBounds" />
          </mxGeometry>
        </mxCell>
        <mxCell id="CRm_1fGnL9gnfe-iebsa-113" value="bingo licences" style="shape=partialRectangle;overflow=hidden;connectable=0;fillColor=none;top=0;left=0;bottom=0;right=0;align=left;spacingLeft=6;" vertex="1" parent="CRm_1fGnL9gnfe-iebsa-111">
          <mxGeometry x="30" width="750" height="30" as="geometry">
            <mxRectangle width="750" height="30" as="alternateBounds" />
          </mxGeometry>
        </mxCell>
        <mxCell id="CRm_1fGnL9gnfe-iebsa-108" style="shape=partialRectangle;collapsible=0;dropTarget=0;pointerEvents=0;fillColor=none;points=[[0,0.5],[1,0.5]];portConstraint=eastwest;top=0;left=0;right=0;bottom=0;" vertex="1" parent="n8HSf5kuPVpnNOSW-F3q-1">
          <mxGeometry y="810" width="780" height="30" as="geometry" />
        </mxCell>
        <mxCell id="CRm_1fGnL9gnfe-iebsa-109" style="shape=partialRectangle;overflow=hidden;connectable=0;fillColor=none;top=0;left=0;bottom=0;right=0;" vertex="1" parent="CRm_1fGnL9gnfe-iebsa-108">
          <mxGeometry width="30" height="30" as="geometry">
            <mxRectangle width="30" height="30" as="alternateBounds" />
          </mxGeometry>
        </mxCell>
        <mxCell id="CRm_1fGnL9gnfe-iebsa-110" value="missing licences" style="shape=partialRectangle;overflow=hidden;connectable=0;fillColor=none;top=0;left=0;bottom=0;right=0;align=left;spacingLeft=6;" vertex="1" parent="CRm_1fGnL9gnfe-iebsa-108">
          <mxGeometry x="30" width="750" height="30" as="geometry">
            <mxRectangle width="750" height="30" as="alternateBounds" />
          </mxGeometry>
        </mxCell>
        <mxCell id="CRm_1fGnL9gnfe-iebsa-117" style="shape=partialRectangle;collapsible=0;dropTarget=0;pointerEvents=0;fillColor=none;points=[[0,0.5],[1,0.5]];portConstraint=eastwest;top=0;left=0;right=0;bottom=0;" vertex="1" parent="n8HSf5kuPVpnNOSW-F3q-1">
          <mxGeometry y="840" width="780" height="30" as="geometry" />
        </mxCell>
        <mxCell id="CRm_1fGnL9gnfe-iebsa-118" style="shape=partialRectangle;overflow=hidden;connectable=0;fillColor=none;top=0;left=0;bottom=0;right=0;" vertex="1" parent="CRm_1fGnL9gnfe-iebsa-117">
          <mxGeometry width="30" height="30" as="geometry">
            <mxRectangle width="30" height="30" as="alternateBounds" />
          </mxGeometry>
        </mxCell>
        <mxCell id="CRm_1fGnL9gnfe-iebsa-119" value="family entertainment centre licences" style="shape=partialRectangle;overflow=hidden;connectable=0;fillColor=none;top=0;left=0;bottom=0;right=0;align=left;spacingLeft=6;" vertex="1" parent="CRm_1fGnL9gnfe-iebsa-117">
          <mxGeometry x="30" width="750" height="30" as="geometry">
            <mxRectangle width="750" height="30" as="alternateBounds" />
          </mxGeometry>
        </mxCell>
        <mxCell id="CRm_1fGnL9gnfe-iebsa-120" style="shape=partialRectangle;collapsible=0;dropTarget=0;pointerEvents=0;fillColor=none;points=[[0,0.5],[1,0.5]];portConstraint=eastwest;top=0;left=0;right=0;bottom=0;" vertex="1" parent="n8HSf5kuPVpnNOSW-F3q-1">
          <mxGeometry y="870" width="780" height="30" as="geometry" />
        </mxCell>
        <mxCell id="CRm_1fGnL9gnfe-iebsa-121" style="shape=partialRectangle;overflow=hidden;connectable=0;fillColor=none;top=0;left=0;bottom=0;right=0;" vertex="1" parent="CRm_1fGnL9gnfe-iebsa-120">
          <mxGeometry width="30" height="30" as="geometry">
            <mxRectangle width="30" height="30" as="alternateBounds" />
          </mxGeometry>
        </mxCell>
        <mxCell id="CRm_1fGnL9gnfe-iebsa-122" value="casino licences" style="shape=partialRectangle;overflow=hidden;connectable=0;fillColor=none;top=0;left=0;bottom=0;right=0;align=left;spacingLeft=6;" vertex="1" parent="CRm_1fGnL9gnfe-iebsa-120">
          <mxGeometry x="30" width="750" height="30" as="geometry">
            <mxRectangle width="750" height="30" as="alternateBounds" />
          </mxGeometry>
        </mxCell>
      </root>
    </mxGraphModel>
  </diagram>
</mxfile>
